<?xml version="1.0" encoding="utf-8"?>
<!-- Generator: Adobe Illustrator 19.2.1, SVG Export Plug-In . SVG Version: 6.00 Build 0)  -->
<svg version="1.1" id="layer" xmlns="http://www.w3.org/2000/svg" xmlns:xlink="http://www.w3.org/1999/xlink" x="0px" y="0px"
	 viewBox="0 0 652 652" style="enable-background:new 0 0 652 652;" xml:space="preserve">
<style type="text/css">
	.st0{fill:#EE3124;}
</style>
<path d="M26.6,263.4h4.9v24.7c0,8.5,4.9,11.9,11.4,11.9s11.3-3.5,11.3-11.5v-25.1h4.9v24.9c0,10.5-7.3,16.1-16.4,16.1
	c-8.9,0-16.3-4.2-16.3-15.2C26.6,289.2,26.6,263.4,26.6,263.4z M76.5,263.4h4.9l23.4,32.8v-32.8h4.9v40.3h-4.9l-23.5-32.4v32.4h-4.9
	L76.5,263.4L76.5,263.4z M127.5,263.4h4.9v40.3h-4.9V263.4z M145.3,263.4h5.2l11.8,33.2l11.8-33.2h5L164.7,304h-4.9L145.3,263.4z
	 M191.9,263.4h23.7v4.2h-18.7V281h14.8v4.2h-14.8v14.3h18.7v4.2h-23.6V263.4z M230.6,263.4h10.6c10.4,0,14.4,5.3,14.4,10.9
	c0,5.8-4.4,9.5-8.3,11.3l12.2,18h-5.8l-11.6-17h-6.5v16.9h-4.9V263.4z M241.9,282.6c3.9,0,8.3-2.7,8.3-7.6c0-3.8-2.6-7.3-10-7.3
	h-4.7v14.9H241.9z M270.8,296.4c0,0,4.7,3.6,10.5,3.6c4.4,0,8-2,8-5.8c0-9.1-19.1-8.7-19.1-20.9c0-5.8,4.7-10.5,13.1-10.5
	c5.3,0,10.3,1.8,10.3,1.8l-1.2,4.7c0,0-4.5-2.1-9.1-2.1c-4.5,0-7.9,1.9-7.9,5.5c0,9.3,19.1,8.3,19.1,21.1c0,7-6,10.7-13.2,10.7
	c-7,0-11.6-3.3-11.6-3.3L270.8,296.4z M309.2,263.4h4.9v40.3h-4.9V263.4z M341.4,267.6h-14.3v-4.2h33.7v4.2h-14.5v36.1h-4.9
	L341.4,267.6L341.4,267.6z M382.8,286.2l-14.5-22.7h5.8l11.1,17.9l11.2-17.9h5.5l-14.4,22.6v17.5h-4.9L382.8,286.2L382.8,286.2z
	 M38.4,331.2H21.2v-8.4h44.2v8.4h-17v43.6h-10V331.2z M90.5,322.3h9.6l19.6,52.3h-10.3l-4.2-11.7H85.2L81,374.7H71L90.5,322.3z
	 M88.1,354.7h14.1l-7-19.6L88.1,354.7z M133.8,362.4c0,0,5.6,4.7,12.8,4.6c4.4,0,8.2-1.9,8.2-5.5c0-9.3-23.1-9-23.1-24.7
	c0-8,6.6-14.8,17.9-14.8c7.2,0,14.1,2.4,14.1,2.4l-1.6,9c0,0-6.1-2.7-12.3-2.7c-4.5,0-8,1.8-8,5.1c0,9.4,23,8.6,23,24.9
	c0,9.4-8.1,15-18.1,15c-9.4,0-15.9-4.4-15.9-4.4L133.8,362.4z M183.3,322.7h14.5l12.6,36.1l12.6-36.1h14.2l1.9,52h-9.7l-1.5-40.7
	l-14.5,40.7h-6.6l-14.3-40.6l-1.3,40.6h-9.7L183.3,322.7z M272.1,322.3h9.6l19.6,52.3h-10.2l-4.2-11.7h-20.2l-4.2,11.7h-10
	L272.1,322.3z M269.7,354.7h14.1l-7-19.6L269.7,354.7z M316,322.7h10.1l25.3,36.6v-36.6h9.8v52H351l-25.2-36.4v36.4H316V322.7z
	 M381.9,322.7H392v52h-10.1V322.7z M426.3,322.3h9.6l19.6,52.3h-10.2l-4.2-11.7H421l-4.2,11.7h-10.2L426.3,322.3z M423.8,354.7h14.1
	l-7-19.6L423.8,354.7z M424.6,274.8c5.6,0,8.4,4.4,8.4,8.9c0,5.7-4.6,14.1-12.4,14.1c-5.6,0-8.4-4.4-8.4-9.2
	C412.4,281.8,417.6,274.8,424.6,274.8z M421,294.6c5,0,8.2-5.8,8.2-10.8c0-3.3-1.4-5.9-4.7-5.9c-4.5,0-8.3,4.5-8.3,10.4
	C416.3,292,417.7,294.6,421,294.6z M437.5,276.4l3.4-1.2l0.2-1c0.8-5.7,3.1-12.2,10.2-12.2c3.4,0,5.4,1.3,5.4,1.3l-1.6,3
	c0,0-1.7-1-3.7-1c-4.9,0-6,5-6.9,10.3h5.9l-0.7,3h-5.6c-1.4,11.8-3,27.7-11.8,30.3l-1.5-2.6c5.4-1.8,7.7-11.4,8.9-20.3l1-7.3h-3
	v-2.2H437.5z"/>
<path class="st0" d="M518.9,273.8c-0.7,0-2.2,0.1-3.1,0.1c-0.6,0-1-0.1-1.8-0.4c-0.3-0.1-0.5,0.1-0.6,0.4l-0.1,2.1
	c0,0.5,0.4,0.9,0.9,1c1.6,0.4,3.6,0.2,6.2-2.6C520.9,273.9,519.5,273.8,518.9,273.8"/>
<path class="st0" d="M621.2,286.8c0.1-0.1,0.1-0.2,0-0.2c-4.5-4.7-24.3-2.4-31.9-1.4c-9.5,1-17.3,2.1-19.7,2.3
	c-2.6,0.1-7.8,0.5-10.8-1c-3.4-1.7-4.5-3-4.7-4.7c-0.8-5,3.6-5.1,4.9-5.1c1.3,0,3.3,0,3.2,1.9c-0.1,1.3-1.2,1.9-2.4,2.5
	c-0.1,0-0.1,0.2,0,0.2c0.7,0.6,3.1,2.5,5.9,2.3c3.2-0.2,5.4-0.9,6.9-6.2c0-0.1,0.1-0.1,0.2-0.1c1,0.4,7.2,2.8,10.9,3.5
	c3,0.7,7.4,0.8,10.5-1s7.5-4.5,12.5-4.2c4.4,0.2,9.4,0.3,12.4,2c0.1,0.1,0.2,0,0.2-0.2c-0.6-2-4.6-13-17.9-10l0,0
	c-3.3,1-3.8,1.7-6.5,2.2c-3.1,0.6-7.9,0.9-14.4-0.7c-0.1,0-0.2-0.2,0-0.3c1.7-1,10.6-5.5,20.4-3.8c0.1,0,0.2-0.1,0.1-0.2
	c-1-1.2-5.3-6.7-12.7-6.4c-8.5,0.3-10.4,2.2-15.6,4.9c-4.9,2.6-6.9,4.3-15.2,3.8c-5.1-0.3-10.7,3.8-11.8,7
	c-4.9,14.1,5.6,19.7,14.8,21.2c8.6,1.3,38.3-4.8,45.3-1.5c3.2,1.4,5.1,4.5,4.9,7c-0.1,1.2-1.4,3.3-5.5,4.2c-4.2,1-13.1,1.3-20.9-0.6
	l0,0c-0.2-0.1-7.2-4.1-12.8-4.4c-4.1-0.3-14.6,2-17.8,2.1c-2.3,0-6.8,0.3-9.1,0.5c0.1-10.7-5.7-19.4-6-19.9
	c-0.4-0.6-1.1-0.8-1.7-0.4c0,0-0.8,0.4-2.2,1c1.5-3,1.1-6.9-0.3-8.5c-0.1-0.1-0.1-0.2,0-0.3c0.4-0.4,1.2-1.9,1.3-3.3
	c0.1-2.5-0.4-5.6-6.3-8.9c-0.4-0.2-0.9,0-1,0.4c-0.5,1.2-1.5,3.4-2.6,3.5c-2.2,0.2-8.9,1.6-10.6,2.6c-1.7,0.9-3.7,2.3-4.8,3.9
	c-1,1.6-2.3,2.4-4,2.8c-1.7,0.4-2.4,0-3,0.6c-0.5,0.6-0.9,1-0.7,2.1c0.1,0.8,1.5,3.7,2.3,5.1c0.6,1,1.4,2.2,2.4,2.8h-2.3
	c-0.7,0-2-0.1-2-0.1c-0.3,0-0.6,0.1-0.7,0.4c-0.1,0.3-0.1,0.6,0.1,0.8c0.7,0.8,1.4,1.6,4.1,1.6c0.1,0,0.2,0,0.3,0h2.1
	c-0.3,0.4-0.7,0.8-0.9,1c-0.2,0.3-1.7,1.8-0.7,4.2c0.9,1.9,2.1,2.6,2.1,2.6c1.5-1,4.9-2.6,6.2-1.5c-0.3,0.3-0.5,0.6-0.8,0.9
	c-2.8,3-6.5,6.9-8.5,11.6c-2.6-1-8.8-3.3-11.6-6.2c-0.9-0.9-1.7-3.2-1.1-5c0.5-1.5,0.9-3.1-0.3-5.6c-1-2.3-4.1-4.6-4.1-4.6
	c0.4-2.8,1-6.5,1.1-7.5c2.6,0.3,5-0.4,5.9-1.6c0.9-1.2,1-3.7,1.5-4.3c0.4-0.6,1.3-0.4,1.8-0.4c1.1-0.1,2.6-0.1,4-1.4
	c1.5-1.4,2.7-3.4,4-3.6c1.9-0.3,3-0.9,3.9-1.6c1.1-1,3.5-3.9,7.9-3.8c1.2,0,1.9-1.2-0.4-1.7c-3-0.7-6.5-0.1-8.3,0.7
	c-2.5,1-3.5,0.1-4.6-0.2c-1.6-0.5-3.2-0.4-5.6,0.6c-2,0.8-5.5,1.2-7.6,0.6c-3-1-5.4-1.4-9.2-0.5c-3.3,0.8-5.6,2.7-6.8,5.4
	c-1,2.6-0.2,4.6,0,5c0.2,0.5,0.7,1.2,0.9,1.4c-0.1,2.2-0.4,9.4-0.4,10.3c-0.5,0.7-0.7,1.5-0.7,1.9c-0.1,0.4-0.1,0.7-0.1,1
	c-0.1,0-0.3,0-0.4,0c-0.8,0.1-1.6,0.4-2.2,1l-0.2,0.3l-0.2,0.3c-0.1,0.2-0.3,0.4-0.4,0.6l-0.3,0.6c-0.1,0.2-0.1,0.5-0.2,0.8
	c-0.1,0.5-0.1,1,0,1.5c0.1,0.5,0.3,1,0.6,1.3c0.4,0.7,0.9,1,1.3,1.4c-0.2,0.2-0.4,0.5-0.6,0.7c-0.4,0.6-0.6,1.1-0.7,2
	c-0.1,0.9,0.2,1.6,0.6,2.2c0.4,0.6,0.8,1,1.2,1.3c0.4,0.3,1,0.7,1.3,1c-1,29.8-1.1,30.9,1.9,31.9c0.1,0,0.3,0,0.4,0
	c3.6,0,4.6-8,6.7-21.9c0.3-2,0.5-3.8,0.8-5.3c2.6,4.8,8.4,14.7,16.8,22.4c0.5,0.4,1.1,0.2,1.3-0.5c1-3.9,1.6-5.2,2-5.9
	c0.6,1.2,1.5,2.9,2.3,4c1.1,1.6,2.6,3.2,4.3,4.8l0,0c-2.6,2.5-8.9,8.1-15.4,10.1c-0.1,0-0.1,0-0.2-0.1c-0.2-0.6-1.3-3-2.8-4.4
	c-1.6-1.4-3-3-8.9-1.7c0,0-1.6,0.4-3.4,1.1c-0.8,0.3-0.6,1.4,0.2,1.4c0.8,0,1.4,0.1,1.7,0.2c0.1,0,0.1,0.1,0.1,0.1
	c-0.1,0.4-0.2,1.5,0.5,2.6c0,0.1,0,0.1,0,0.2c-0.7,0.5-4.9,3.8-4.1,10.7c0.1,0.5,0.7,0.6,0.9,0.1c0.3-1,0.7-2,0.7-1.9
	c0.4,0.6,1.9,3.1,4.3,3.5c0.1,0,0.1,0.1,0.1,0.1c-0.1,0.8-0.5,4.7,2.5,8.4c0.4,0.5,1,0.2,1-0.5c0-0.6-0.1-1,0-1.5
	c0-0.1,0.1-0.2,0.2-0.1c0.5,0.4,1.6,0.8,3.1-0.2c1.4-0.9,3.1-2.7,4.5-4.9c0-0.1,0.2-0.1,0.2,0c1.1,1.4,2.9,1.5,4.9,1.5
	c3.3,0,6.1-1.8,6.1-5c0-0.1,0-0.2,0-0.2c7.5,0.8,12.1-1,17.8-4.7c5.3-3.3,8-5.7,7.6-8.8c-0.2-1.3-0.8-2.9-1.7-3.7
	c9.1-0.2,13.9-6.4,15.6-9.1c0.1-0.1,0.3,0,0.2,0.1c-0.6,2.6-0.7,7.4,0.8,10c2.1,3.8,7,9.6,7.8,12c0.8,2.4,0.7,8.5-2,11.8
	c-2.7,3.3-3.3,3.9-5.3,5h-0.1c-0.5-0.5-4.1-3.5-7.6-4.1c-3.6-0.6-14.9-3.1-15.5,9.2c0,0.6,0.7,0.9,1,0.5c0.8-1,1.8-2.1,2.5-2.4h0.1
	c0.3,0.1,1.6,0.9,2.2,1c0.1,0,0.1,0.1,0.1,0.2c-1.9,2.5-3.7,6.5-0.1,10.8c0.3,0.4,1,0.1,0.9-0.4c-0.1-0.7-0.1-1.5,0-2.3
	c0-0.1,0.2-0.2,0.2-0.1c1.3,1.9,4.3,2.6,7.1,1.3c0.1,0,0.2,0,0.2,0.1c0.1,0.8,0.9,4,5.7,7.6c0.5,0.4,1.1-0.2,1-0.8
	c-0.3-1-0.7-1.9-0.6-2.5c0-0.1,0.1-0.1,0.1-0.1c1.9,0,4.7-1,5.9-3.6c1-2.4,1.5-4.7,1.6-5c0,0,0-0.1,0.1-0.1l4.3-2.8
	c0.1,0,0.2,0,0.2,0.1c0.3,0.8,0.7,1.7,1.4,1.9c0.1,0,0.1,0.1,0.1,0.2c-0.1,0.4-0.5,1.8-1,3c-0.2,0.4,0.3,0.8,0.7,0.6
	c2.8-2,8.4-7.2,5.8-12.8c9-7.1,14.7-15.9,15.5-21.2c0.1-0.8-0.5-1.4-1.1-1.4c-5.8-0.2-8.9-1.7-8.5-7c0-0.1,0.1-0.1,0.2-0.1
	c1.4,0.4,14.5,3.9,23.2,1.3c0.6-0.2,1,0.1,1.3,0.7c1,1.8,3,5.8,3.4,8.2c0.8,3,0.2,4.6,0.1,4.7l0,0c-0.5,0.7-1.4,1.4-3.9,3
	c-6.2,4-5.6,9.1,0.1,14.9c0.3,0.3,0.8,0,0.7-0.4c-0.3-1.2-0.8-2.9-0.8-3.5c0-0.1,0.1-0.1,0.2-0.1c0.9,0.2,1.5-0.1,2-0.3
	c0.1,0,0.2,0,0.2,0.1c0.1,0.8,0.8,3.8,5.1,5.8c0.2,0.1,0.5-0.1,0.4-0.4c-0.4-0.9-1-2.5-1-3.1c0-0.1,0.1-0.2,0.1-0.2
	c1,0,4.5,0,5.2-4.7c0-0.1,0.1-0.1,0.2-0.1c0.9,0.3,5.5,1.8,8.4-1.9c0.1-0.2,0-0.5-0.2-0.4c-0.8,0.2-2.1,0.5-2.8,0.2
	c-0.1,0-0.1-0.1-0.1-0.2c0.5-0.8,2.7-5.2-2.8-10c0,0-0.1-0.1,0-0.2c3.5-10.8,2.8-22.8-1.1-30c-0.3-0.6-1-0.9-1.5-0.7
	c-6.8,2.5-17.8,3.4-19.2-2.6c0-0.1,0.1-0.2,0.2-0.2c1,0.1,5,0.9,9.4,0.4c2.7-0.3,6.7-0.7,10.7-1.9c4-1.2,7.2-2.8,8.8-6.9
	c1-2.9,1-8.8-2.2-13c0-0.1,0-0.1,0-0.2L621.2,286.8z M481.4,275.4c2.2,1.4,4.6,2,6.6,2.5c0,0-0.8,6.2-0.9,6.2
	c-0.3-0.2-0.7-0.4-1-0.5c-0.9-0.5-1.7-0.9-2.6-1.2c-0.5-0.2-1-0.4-1.5-0.5c-0.3-0.1-0.6-0.1-1-0.1L481.4,275.4z M480.3,267.9
	c0.8-3.3,4-4.1,5.2-4.5c2.8-0.8,5.4-0.5,7.7,0.4c2.3,0.9,5.8,0.2,7.6-0.5c1.9-0.8,3.3-1.1,4.3-0.8c1.3,0.5,2.4,0.6,3.1,0.6
	c1.4,0,3.5-0.7,3.7-0.7c0,0-2.3,1.9-3.8,1.9c-2.3-0.1-3.9,2.3-4.6,3.5c-0.7,1.2-1.9,2-4.7,2.1c-3.6,0.1-3.8,3-4.2,4.2
	c-0.3,1.2-1.5,1.9-4.1,1.6c-4.2-0.6-5.6-1.3-7.4-2.2C480.9,272.3,479.8,270.1,480.3,267.9 M475.8,289.5c0.6-1.7,2.7-1.2,3.9-1
	c0.3,0.1,0.5-0.2,0.4-0.5c-0.4-0.8-0.7-2-0.2-2.8c0.9-1.3,3.5,0.1,4.8,0.7c1.2,0.6,4,2.1,3.3,3.7c-0.3,1-1.2,1.3-1.9,1.3
	c-0.3,0-0.4,0.4-0.2,0.6c0.7,0.8,1.7,2.1,1.2,3.3c-0.5,1.2-2.3,1-3.3,1c-0.3,0-0.5,0.4-0.3,0.6c0.7,0.8,1.5,2,1.1,3.1
	c-0.5,1.9-3.4,0.6-4.9-0.1s-3.4-2-3.1-3.3c0.2-0.9,1.3-1.4,2.1-1.7c0.3-0.1,0.3-0.5,0.1-0.7C477.7,292.9,475.4,291.1,475.8,289.5
	 M479.7,329.2c-0.6,0-0.5-4.1-0.3-10.5c0.2-6.8,0.7-14.7,0.8-16.4c0.7,0.3,1.3,0.5,2.2,0.7c0.5,0.1,1,0.2,1.6,0.2c0.2,0,0.1,0,0.3,0
	c-0.4,1.8-0.7,4.3-1,7.1c-0.3,2.1-0.9,5.4-1.3,8.6C481.2,324.2,480.1,329.2,479.7,329.2 M511.1,324c-1-1.5-1.8-3-2.4-4.5
	c-0.2-0.6-0.4-1.4-0.7-2.2c-0.1-0.3-0.4-0.4-0.6-0.2c-0.9,0.9-1.5,1.7-2.2,3c0,0.1-0.1,0.1-0.1,0.2c-0.7,1.2-1.1,2.6-1.6,4.1
	c-1.1-1-2.5-2.3-3.7-3.7c0-0.2,0.1-0.4,0.1-0.6c0.1-0.4,0.1-0.8,0.2-1.1c0.2-0.8,0.4-1.5,0.6-2.3l0,0c0.1-0.2,0-0.4-0.1-0.5
	c-0.2-0.2-0.5-0.2-0.6,0c-0.6,0.6-1,1.3-1.5,2c-0.1,0.2-0.2,0.4-0.3,0.5c-0.7-0.9-1.3-1.8-2-2.8c0-0.2,0-0.3,0.1-0.5
	c0-0.4,0.1-0.7,0.2-1c0.1-0.8,0.3-1.4,0.6-2.2l0,0c0-0.2,0-0.3-0.1-0.5c-0.2-0.2-0.5-0.2-0.6,0c-0.6,0.6-1,1.1-1.5,1.9
	c0,0-0.1,0.1-0.1,0.2c-3.7-5.4-6.9-11-7.8-12.7c0.1-0.2,0.1-0.3,0.2-0.5c0.2-0.8,0.2-1.4-0.1-2.1c0-0.1-0.1-0.1-0.1-0.2
	c0.2,0,0.4-0.1,0.7-0.1c0.6-0.2,1-0.6,1.4-1c0.4-0.5,0.6-1,0.7-1.5c0.1-0.6,0.2-1.2,0-1.8c-0.1-0.6-0.4-1-0.7-1.3
	c0.6-0.4,1-0.9,1.2-1.4c0.1-0.2,0.2-0.3,0.2-0.5c0.1-0.1,0.1-0.3,0.2-0.5c0.5,0.4,0.9,0.8,1.1,1.5c1,2-0.2,5.1-0.3,6.4
	c-0.2,1.2,0.4,3,1.2,4.1c0.9,1.1,8.1,5.3,14.9,8.2l1,0.5c1.5-5.3,5.7-9.8,8.8-13c0.7-0.8,1.3-1.5,1.9-2.2l0.7-0.9l-1-1
	c-1.2-1.4-2.8-1.8-3.6-1.8c-1.5,0-4.4,1.1-4.4,1.1c-1.4-1.5,0.8-3.4,1.7-4.4c1.2,0,2.9-0.1,3.5-0.2c0.3,0,0.7,0,1-0.1
	c0.4,0,0.7-0.5,0.5-0.9c-0.4-0.7-0.9-1.6-1.3-2.1c-0.7-0.9-2.4-0.1-5.1-0.4c-4-0.5-5.5-7.1-5.5-7.1c1,0.2,3-0.1,4.7-1.2
	c1.7-1,2.5-3.5,4.6-4.9c2-1.4,6.7-1.8,10.1-2.1c3.2-0.2,4-2.4,4.8-3.9c0.1-0.2,0.3-0.3,0.5-0.2c4.1,2.7,3.4,6.1,2.4,7.6
	c-0.2,0.3-0.6,0.8-0.9,1.1c-0.1,0.1-0.1,0.3,0.1,0.4c0.7,0.4,1,0.8,1.4,1.9c0.7,1.9,0.4,4-0.3,5.2c-0.9,1.7-2.5,2.4-3.9,3
	c-0.2,0.1-0.6,0.2-1,0.4c-1,0.5-0.8,2,0.3,2l0,0c0.6,0,0.8,0.1,1,0l0,0c3.5,0.1,6.2-1.1,7.8-2c1,2,3.3,6.5,4.4,11.9
	c-0.4-0.4-0.9-0.8-1.2-1c-1-0.7-2-1.2-3-1.7c-1-0.4-2.2-0.8-3.2-0.9c-0.3,0-0.6,0.1-0.8,0.5c-0.2,0.4,0,0.8,0.4,1l0,0
	c1,0.4,1.9,0.9,2.8,1.4c0.9,0.5,1.7,1.1,2.5,1.7c0.8,0.7,1.4,1.4,2,2.2c0.3,0.4,0.6,0.9,0.9,1.2l0.4,0.7c0,0,0,0,0,0.1
	c0,2.8-0.4,5.7-1.5,8.7c-0.1,0.2-0.1,0.3-0.2,0.5c-0.1-0.3-0.2-0.6-0.3-0.9c-0.5-1.3-1.1-2.7-2-3.8s-1.9-2.2-3.1-3
	c-1.2-0.8-2.5-1.2-3.8-1.5c-0.3-0.1-0.7,0.1-0.8,0.5c-0.2,0.4,0,0.8,0.4,1l0,0c1.1,0.5,2.2,1.1,3.1,1.9s1.7,1.6,2.4,2.7
	c0.7,1,1.1,2.2,1.5,3.3c0.2,0.6,0.4,1.2,0.6,1.8c0.1,0.3,0.2,0.6,0.2,1c0,0.1,0.1,0.3,0.2,0.4c-1.2,1.8-2.8,3.8-4.7,5.7
	c0-0.3-0.1-0.5-0.1-0.8c-0.1-0.4-0.1-0.8-0.2-1.1c-0.4-1.5-0.9-3-1.6-4.5c-0.8-1.4-1.7-2.7-3-3.7c-1.1-1-2.5-1.8-3.9-2.3
	c-0.3-0.1-0.7,0-0.9,0.3c-0.2,0.4-0.1,0.8,0.3,1l0,0c1.1,0.8,2.3,1.5,3.1,2.6c0.9,1,1.6,2.1,2.2,3.3s1,2.6,1.2,3.9
	c0.1,0.4,0.1,0.7,0.2,1c0.1,0.4,0.1,0.7,0.1,1c0,0.4,0.1,0.7,0.1,1c0,0.1,0.1,0.3,0.1,0.4c-1.5,1.3-3.1,2.7-4.9,3.9
	c-0.1,0-0.2-0.1-0.3-0.2c-0.3-0.2-0.6-0.4-0.9-0.6c-0.3-0.2-0.6-0.4-0.9-0.6c-0.3-0.2-0.6-0.4-0.8-0.7c-1-0.9-2-1.8-2.8-2.9
	c-0.8-1-1.4-2.2-1.8-3.5c-0.4-1.2-0.6-2.7-0.6-4.1l0,0c0-0.4-0.2-0.7-0.6-0.7c-0.4-0.1-0.8,0.2-0.9,0.6c-0.3,1.5-0.3,3.1-0.1,4.8
	c0.3,1.6,0.9,3.1,1.7,4.6c0.9,1.4,1.8,2.6,3,3.7c0.3,0.3,0.6,0.6,0.9,0.8s0.5,0.5,0.8,0.7c-2,1.1-4,2.1-6.1,2.7l-0.3-0.3
	c-0.8-0.7-1.5-1.2-2.2-1.9C513.6,327.1,512.2,325.5,511.1,324 M578.7,342c-1,2.6-2.3,4.9-3.7,7.1l0,0c-0.4-0.7-0.9-1.2-1.3-1.7
	c-0.5-0.5-1-1-1.5-1.3c-0.6-0.4-1-0.8-1.7-1c-0.3-0.1-0.6-0.1-0.8,0.2c-0.2,0.3-0.2,0.8,0.1,1l0,0c0.4,0.4,0.9,0.8,1.2,1.2
	c0.4,0.5,0.8,1,1,1.4c0.3,0.5,0.6,1,0.7,1.5c0.2,0.5,0.3,1,0.3,1.5c-0.9,1-1.8,2.1-2.7,3.1c-0.1-0.1-0.1-0.3-0.2-0.4
	c-0.4-0.7-0.8-1.2-1.2-1.8c-0.5-0.6-1-1-1.5-1.4c-0.6-0.4-1-0.8-1.7-1.1c-0.3-0.1-0.6-0.1-0.8,0.2c-0.3,0.3-0.2,0.8,0.1,1l0,0
	c0.4,0.4,0.9,0.9,1.1,1.3c0.4,0.5,0.7,1,1,1.4c0.3,0.5,0.5,1,0.6,1.5c0.1,0.5,0.2,1,0.2,1.5l0,0c0,0.1,0,0.1,0,0.2
	c-1.4,1.4-3,2.7-4.2,3.7c0,0-0.1,0.1,0,0.2c1.8,5-1.2,9.7-2.9,5.1c-0.4-1-0.7-0.9-1.4-0.3c-0.7,0.5-6.4,4.5-7,4.9l-0.1,0.1
	c0.7,3.8-3,7.1-5.5,6.9c-2.1-0.2-3.1-2.7-2.6-6c0.1-0.5-0.4-0.8-0.8-0.5c-2.2,1.8-6.2,4.2-8.8,0.5c-1.2-1.7,1.1-4.7,2.4-6
	c0.3-0.3,0.1-0.9-0.3-1c-2-0.3-5.9-1.1-4.3-3.1c1.4-1.8,4.3-1.5,6.3-1.4c2.3,0.2,7.1,0.9,11.1,5.3c0,0,0.1,0.1,0.2,0
	c0.7-0.4,4.4-2.7,6-4.6c1.8-2.1,4.6-3.7,4.8-13.6c0.1-4.7-4.1-8.5-6.6-12.2c-2.5-3.6-3.9-6.8-2.1-12.8c0-0.1,0.1-0.1,0.1-0.1
	c0.3,0,1.6-0.1,5.5-0.1h0.1c0.5,0.6,5,5.8,11.3,8.4c0.1,0,0.1,0.1,0.1,0.1C569.1,332.3,568.4,342,578.7,342 M590,318.4
	c4,2.6,11.4,2.2,18.6,0.1c0.1,0,0.1,0,0.2,0.1c1,2.3,1.7,4.6,2.2,7c-0.7-0.4-1.4-0.8-2.1-1c-0.8-0.3-1.5-0.6-2.3-0.7
	c-0.8-0.2-1.5-0.3-2.4-0.3c-0.2,0-0.4,0.1-0.4,0.3c-0.1,0.2,0.1,0.5,0.3,0.6l0,0c0.7,0.2,1.4,0.5,2.1,0.8s1.3,0.7,1.9,1
	c0.6,0.4,1.2,0.9,1.7,1.3c0.6,0.5,1,1,1.6,1.4l0,0c0.1,1.4,0.2,2.9,0.1,4.3c-0.2-0.1-0.4-0.2-0.6-0.4c-0.7-0.4-1.4-0.8-2.2-1
	c-0.8-0.3-1.5-0.6-2.3-0.8c-0.8-0.2-1.5-0.3-2.4-0.3c-0.2,0-0.4,0.1-0.4,0.3c-0.1,0.2,0.1,0.5,0.3,0.6l0,0c0.7,0.2,1.4,0.5,2.1,0.8
	c0.7,0.3,1.3,0.7,1.9,1c0.6,0.4,1.2,0.9,1.7,1.3c0.6,0.5,1,1,1.5,1.3c-0.4,3.1-1.1,6.4-2.2,9.7l0,0c-0.1,0.3-0.2,0.6-0.4,0.9
	c4.5,2.4,5.5,8.6,2.1,9.2c-1,0.2-2.1-0.1-2.8-0.6c-0.3-0.2-0.6-0.1-0.7,0.3c-0.4,1.8-1.6,5.2-4.1,5.2c-2,0-2.7-1.6-2.7-3.1
	c0-0.5-0.6-0.7-0.9-0.3c-1.2,1.5-2.5,2.1-3.5,1.4c-1.3-1-1.6-2.4-1-3.4c1.5-3.1,5.9-4.3,7.7-6.7l0,0c2.2-3.9-1.4-11.8-4.1-17.4
	c-0.3-0.6-1-0.9-1.5-0.7c-2.5,0.8-9,2.2-17,0.7c-10.8-2.1-16.7-6.1-20.2-10.7c0,0,0-0.1-0.1-0.1c-0.2-0.3-0.5-0.6-0.7-1l0,0
	c-1-1.3-1.5-2.4-2.1-3.2c-0.1-0.2-0.3-0.3-0.4-0.3c-1-0.2-0.5,2.8-0.3,3.5c0,0.1,0,0.1-0.1,0.2c-2.2,0.5-4.7,0.1-7.5,0.2
	c0,0-0.1,0-0.1,0.1c-4.1,5.1-5.4,8.8-17,10.8c-1.6,0.3-1.5,1.3-0.8,1.9c0.7,0.5,1.6,2,1.9,4c0.1,0.9-0.6,2-4.2,4.5
	c-0.1-0.2-0.2-0.4-0.3-0.7c-0.4-0.7-0.8-1.3-1.2-1.8c-0.5-0.6-1-1-1.5-1.4c-0.6-0.4-1.1-0.8-1.8-1c-0.3-0.1-0.6,0-0.8,0.2
	c-0.2,0.3-0.2,0.8,0.1,1h0.1c0.4,0.3,0.9,0.8,1.2,1.1c0.4,0.5,0.7,1,1,1.4c0.3,0.5,0.5,1,0.6,1.5c0.1,0.4,0.1,0.9,0.1,1.2
	c-1.5,1-3,1.8-4.3,2.4c-0.1-0.4-0.2-0.7-0.3-1c-0.3-0.7-0.7-1.3-1-2c-0.4-0.6-1-1.1-1.4-1.5c-0.6-0.5-1-0.9-1.7-1.1
	c-0.3-0.1-0.6-0.1-0.8,0.2c-0.2,0.3-0.2,0.8,0.1,1l0.1,0.1c0.4,0.4,0.8,0.9,1.1,1.2c0.3,0.5,0.6,1,0.9,1.5c0.2,0.5,0.4,1,0.5,1.5
	s0.1,1,0,1.3c-5.3,1.9-8.7,1-10.4,0l0,0c-0.6-0.5-1-0.7-1.2-0.9c-0.5-0.3-1-0.1-1.2,0.3s-0.3,1,0,1.2c0.2,0.3,0.5,0.8,0.8,1.1
	c0.3,0.5,0.5,1,0.5,1.6c0,1.8-1.6,2.4-3.6,2.4s-3.5-0.6-3.5-2.4v-1c0-0.5-0.4-1-0.9-0.9c-0.4,0.1-0.8,0.4-1,0.7l-0.6,1l0,0
	c-0.1,0.2-3.2,7.3-6.5,5.7c-2.2-1-1.1-3.6,0-5.5c0.3-0.6-0.2-1.1-0.8-1c-1,0.4-2.2,0.6-3.1,0c-2-1.1-2.7-3.3-2-4.8
	c0.7-1.2,1.5-2.7,3-3.8c0.3-0.3,0.3-0.8,0-1c-0.8-0.8-1-1.3-0.7-2.2c0.5-1,1.5-1.4,3.5-1.1c2.3,0.4,3.5,3,4.3,5.8
	c0.3,1,1.2,1.6,2.2,1.4l0,0c7.8-1.9,13.6-7.5,18.2-11.3c0.2,0.1,0.3,0.2,0.4,0.4l1.2,1l0.6-0.2c11.6-3.2,22.4-14.8,25-21.7
	c0.9-2.3,1.4-4.6,1.6-6.9c16.2-0.5,15.9-1,23.1-2.2c5.6-1,13.1,2.3,16.7,6C587.2,311.4,587.1,316.5,590,318.4 M617.2,300.4
	c-0.3,4.2-2.3,6.9-6.8,8.3c-4.5,1.2-12.7,3.2-21.2,1.8c-0.6-0.1-1.3-2-1.5-2.7c0-0.1,0-0.2,0.1-0.2c7.8,1.3,19.3,0.1,22.8-2.2
	c4.7-3,3.1-11.2-3-13.6c-9.1-3.5-28.5,1.1-41.8,1.3c-4.9,0.1-10.1,0-15.8-5c-3.7-3.6-4-9.6-1.4-13.8l0,0c2.5-3.7,7-5.1,11.2-4.8
	c10.8,0.9,14-6.3,23.2-8.3c8.9-1.9,13,0.8,14.2,1.7c0.1,0.1,0,0.3-0.1,0.3c-1.6-0.3-7.1-1-14.2,2c-2.6,1-4.9,3-6.9,4.5
	c-0.1,0.1-0.1,0.2,0.1,0.3c4.7,1.1,5.2,2.2,10.4,2.6c12.2,1,15.1-4.3,21.4-3c4.8,1,7,3.9,7.6,4.8c0.1,0.1,0,0.2-0.1,0.2
	c-18.8-4.5-16.9,3.7-27,4.5c-6.1,0.5-14.9-4.8-17.5-4.4c-0.1,0-0.1,0.1-0.1,0.1c-0.1,1-1,8.2-6.8,6.6c-0.1,0-0.1-0.2-0.1-0.3
	c2.2-2.1,1.3-5.3-1.8-6.3c-2-0.6-4.6-0.5-6.8,0.4c-3.5,1.4-4.9,6.3-2.8,9.4c3.1,4.7,8.1,5.7,15,5.2c7.2-0.5,12-1,22.2-2.4
	c3-0.4,8.8-1,14.3-1.2c-0.4,0.6-0.7,1.1-1,1.8c-0.1,0.1-0.1,0.3,0,0.5s0.4,0.3,0.6,0.2l0,0c0.6-0.4,1.1-0.8,1.7-1.1l0.9-0.6
	c0.3-0.2,0.6-0.4,0.8-0.7v-0.1c1.1,0,2.2,0,3.2,0.1l-0.1,0.2c-0.5,0.7-0.9,1.4-1.2,2.2c-0.1,0.2-0.1,0.4,0,0.5
	c0.2,0.2,0.4,0.2,0.6,0.1l0,0c0.6-0.5,1.2-1,1.8-1.3l1-0.7c0.3-0.2,0.6-0.4,0.9-0.7c1.8,0.2,3.2,0.6,3.9,1.2l-4,3.3
	C612.5,291,617.5,294.6,617.2,300.4"/>
</svg>
